<mxfile host="65bd71144e">
    <diagram id="3uG23FWtKbcnpyY0la_F" name="Page-1">
        <mxGraphModel dx="706" dy="355" grid="1" gridSize="10" guides="1" tooltips="1" connect="1" arrows="1" fold="1" page="1" pageScale="1" pageWidth="850" pageHeight="1100" background="#ffffff" math="0" shadow="0">
            <root>
                <mxCell id="0"/>
                <mxCell id="1" parent="0"/>
                <mxCell id="81" value="&lt;div style=&quot;font-family: &amp;quot;Architects Daughter&amp;quot;; font-size: 14px;&quot;&gt;&lt;/div&gt;&lt;font face=&quot;Arial&quot; style=&quot;font-size: 14px;&quot;&gt;- Time series data preprocessing (interpolation and data augmentation).&lt;br style=&quot;font-size: 14px;&quot;&gt;&lt;/font&gt;&lt;span style=&quot;background-color: initial; font-size: 14px;&quot;&gt;&lt;font face=&quot;Arial&quot; style=&quot;font-size: 14px;&quot;&gt;- Selection of candidate predictors using statistical methods.&lt;/font&gt;&lt;br style=&quot;font-size: 14px;&quot;&gt;&lt;/span&gt;&lt;span style=&quot;font-family: Arial; background-color: initial; font-size: 14px;&quot;&gt;-&amp;nbsp;&lt;/span&gt;&lt;span style=&quot;background-color: initial; font-size: 14px;&quot;&gt;&lt;font face=&quot;Arial&quot; style=&quot;font-size: 14px;&quot;&gt;Time-series deep learning using the IMV-LSTM model.&lt;/font&gt;&lt;br style=&quot;font-size: 14px;&quot;&gt;&lt;/span&gt;" style="rounded=1;whiteSpace=wrap;html=1;arcSize=0;fillColor=none;strokeColor=#666666;fontColor=#333333;align=left;spacingLeft=12;shadow=0;fontSize=14;" parent="1" vertex="1">
                    <mxGeometry x="231" y="996" width="510" height="70" as="geometry"/>
                </mxCell>
                <mxCell id="143" style="edgeStyle=orthogonalEdgeStyle;hachureGap=4;html=1;exitX=0.5;exitY=1;exitDx=0;exitDy=0;entryX=0.5;entryY=0;entryDx=0;entryDy=0;fontFamily=Architects Daughter;fontSource=https%3A%2F%2Ffonts.googleapis.com%2Fcss%3Ffamily%3DArchitects%2BDaughter;fontSize=16;rounded=0;shadow=0;" parent="1" source="2" target="14" edge="1">
                    <mxGeometry relative="1" as="geometry"/>
                </mxCell>
                <mxCell id="2" value="SH&lt;br style=&quot;font-size: 14px;&quot;&gt;: 3.54 milion&lt;br style=&quot;font-size: 14px;&quot;&gt;patients&lt;br&gt;2003.01~2021.07" style="shape=datastore;whiteSpace=wrap;html=1;rounded=1;fillColor=none;strokeColor=#666666;fontColor=#333333;shadow=0;fontSize=14;" parent="1" vertex="1">
                    <mxGeometry x="81" y="5" width="120" height="127" as="geometry"/>
                </mxCell>
                <mxCell id="144" style="edgeStyle=orthogonalEdgeStyle;hachureGap=4;html=1;exitX=0.5;exitY=1;exitDx=0;exitDy=0;entryX=0.5;entryY=0;entryDx=0;entryDy=0;fontFamily=Architects Daughter;fontSource=https%3A%2F%2Ffonts.googleapis.com%2Fcss%3Ffamily%3DArchitects%2BDaughter;fontSize=16;rounded=0;shadow=0;" parent="1" source="5" target="14" edge="1">
                    <mxGeometry relative="1" as="geometry"/>
                </mxCell>
                <mxCell id="5" value="GSH&lt;br&gt;: 1.84 milion&lt;br&gt;patients&lt;br&gt;2003.01~2021.07" style="shape=datastore;whiteSpace=wrap;html=1;rounded=1;fillColor=none;strokeColor=#666666;fontColor=#333333;shadow=0;fontSize=14;" parent="1" vertex="1">
                    <mxGeometry x="221" y="5" width="120" height="127" as="geometry"/>
                </mxCell>
                <mxCell id="145" style="edgeStyle=orthogonalEdgeStyle;hachureGap=4;html=1;exitX=0.5;exitY=1;exitDx=0;exitDy=0;fontFamily=Architects Daughter;fontSource=https%3A%2F%2Ffonts.googleapis.com%2Fcss%3Ffamily%3DArchitects%2BDaughter;fontSize=16;rounded=0;entryX=0.5;entryY=0;entryDx=0;entryDy=0;shadow=0;" parent="1" source="6" target="14" edge="1">
                    <mxGeometry relative="1" as="geometry">
                        <mxPoint x="471" y="170" as="targetPoint"/>
                    </mxGeometry>
                </mxCell>
                <mxCell id="6" value="KYUH&amp;nbsp;&lt;br style=&quot;font-size: 14px;&quot;&gt;: 0.62 million&lt;br style=&quot;font-size: 14px;&quot;&gt;patients&lt;br&gt;2012.01~2020.12" style="shape=datastore;whiteSpace=wrap;html=1;rounded=1;fillColor=none;strokeColor=#666666;fontColor=#333333;shadow=0;fontSize=14;" parent="1" vertex="1">
                    <mxGeometry x="361" y="5" width="120" height="127" as="geometry"/>
                </mxCell>
                <mxCell id="146" style="edgeStyle=orthogonalEdgeStyle;hachureGap=4;html=1;exitX=0.5;exitY=1;exitDx=0;exitDy=0;entryX=0.5;entryY=0;entryDx=0;entryDy=0;fontFamily=Architects Daughter;fontSource=https%3A%2F%2Ffonts.googleapis.com%2Fcss%3Ffamily%3DArchitects%2BDaughter;fontSize=16;rounded=0;shadow=0;" parent="1" source="7" target="14" edge="1">
                    <mxGeometry relative="1" as="geometry"/>
                </mxCell>
                <mxCell id="7" value="AJUH&lt;br style=&quot;font-size: 14px;&quot;&gt;: 2.87 million&lt;br style=&quot;font-size: 14px;&quot;&gt;patients&lt;br&gt;1994.01~2020.12" style="shape=datastore;whiteSpace=wrap;html=1;rounded=1;fillColor=none;strokeColor=#666666;fontColor=#333333;shadow=0;fontSize=14;" parent="1" vertex="1">
                    <mxGeometry x="501" y="5" width="120" height="127" as="geometry"/>
                </mxCell>
                <mxCell id="147" style="edgeStyle=orthogonalEdgeStyle;hachureGap=4;html=1;entryX=0.5;entryY=0;entryDx=0;entryDy=0;fontFamily=Architects Daughter;fontSource=https%3A%2F%2Ffonts.googleapis.com%2Fcss%3Ffamily%3DArchitects%2BDaughter;fontSize=16;exitX=0.5;exitY=1;exitDx=0;exitDy=0;rounded=0;shadow=0;" parent="1" source="8" target="14" edge="1">
                    <mxGeometry relative="1" as="geometry"/>
                </mxCell>
                <mxCell id="8" value="SNUH&lt;br style=&quot;font-size: 14px;&quot;&gt;: 3.49 million&lt;br style=&quot;font-size: 14px;&quot;&gt;patients&lt;br&gt;2004.10~2020.12" style="shape=datastore;whiteSpace=wrap;html=1;rounded=1;fillColor=none;strokeColor=#666666;fontColor=#333333;shadow=0;fontSize=14;" parent="1" vertex="1">
                    <mxGeometry x="641" y="5" width="120" height="127" as="geometry"/>
                </mxCell>
                <mxCell id="148" style="edgeStyle=orthogonalEdgeStyle;hachureGap=4;html=1;entryX=0.5;entryY=0;entryDx=0;entryDy=0;fontFamily=Architects Daughter;fontSource=https%3A%2F%2Ffonts.googleapis.com%2Fcss%3Ffamily%3DArchitects%2BDaughter;fontSize=16;exitX=0.5;exitY=1;exitDx=0;exitDy=0;rounded=0;shadow=0;" parent="1" source="9" target="14" edge="1">
                    <mxGeometry relative="1" as="geometry"/>
                </mxCell>
                <mxCell id="9" value="NCC&lt;br style=&quot;font-size: 14px;&quot;&gt;: 0.11 million&lt;br style=&quot;font-size: 14px;&quot;&gt;patients&lt;br&gt;2010.01~2020.12" style="shape=datastore;whiteSpace=wrap;html=1;rounded=1;fillColor=none;strokeColor=#666666;fontColor=#333333;shadow=0;fontSize=14;" parent="1" vertex="1">
                    <mxGeometry x="781" y="5" width="120" height="127" as="geometry"/>
                </mxCell>
                <mxCell id="152" style="edgeStyle=orthogonalEdgeStyle;rounded=0;hachureGap=4;html=1;exitX=0.5;exitY=1;exitDx=0;exitDy=0;fontFamily=Architects Daughter;fontSource=https%3A%2F%2Ffonts.googleapis.com%2Fcss%3Ffamily%3DArchitects%2BDaughter;fontSize=16;shadow=0;" parent="1" source="14" target="25" edge="1">
                    <mxGeometry relative="1" as="geometry"/>
                </mxCell>
                <mxCell id="14" value="&lt;font style=&quot;font-size: 14px;&quot;&gt;&lt;font style=&quot;font-size: 14px;&quot; face=&quot;Arial&quot;&gt;- Patients who took 6 targeted drugs each.&lt;br style=&quot;&quot;&gt;&lt;/font&gt;&lt;span style=&quot;font-family: Arial;&quot;&gt;&lt;br style=&quot;&quot;&gt;With inclusion criteria&lt;/span&gt;&lt;font face=&quot;Arial&quot; style=&quot;font-size: 14px;&quot;&gt;&lt;br style=&quot;&quot;&gt;&lt;/font&gt;&lt;font face=&quot;Arial&quot; style=&quot;font-size: 14px;&quot;&gt;- Patients who had&amp;nbsp;&lt;/font&gt;&lt;font face=&quot;Arial&quot; style=&quot;font-size: 14px;&quot;&gt;a visit record in OMOP opservation period table within 60 days from the index date.&lt;br&gt;&lt;/font&gt;&lt;span style=&quot;&quot; id=&quot;docs-internal-guid-a9a4baf8-7fff-27cc-7c8d-f15550ba2850&quot;&gt;&lt;span style=&quot;font-family: Arial; color: rgb(0, 0, 0); background-color: transparent; font-variant-numeric: normal; font-variant-east-asian: normal; vertical-align: baseline;&quot;&gt;-&amp;nbsp;&lt;/span&gt;&lt;/span&gt;&lt;/font&gt;&lt;span style=&quot;font-family: Arial;&quot;&gt;Patients who had at&amp;nbsp;&lt;/span&gt;&lt;font style=&quot;font-size: 14px;&quot; face=&quot;Arial&quot;&gt;&lt;font style=&quot;font-size: 14px;&quot;&gt;least Two Liver Function Test(LFT) between 60 days before and 0 days after cohort entry start date.&lt;/font&gt;&lt;br style=&quot;font-size: 14px;&quot;&gt;&lt;/font&gt;" style="rounded=1;whiteSpace=wrap;html=1;arcSize=0;fillColor=none;strokeColor=#666666;fontColor=#333333;align=left;spacingLeft=12;shadow=0;fontSize=14;" parent="1" vertex="1">
                    <mxGeometry x="236" y="169" width="505" height="130" as="geometry"/>
                </mxCell>
                <mxCell id="131" style="edgeStyle=orthogonalEdgeStyle;rounded=0;hachureGap=4;html=1;exitX=0.5;exitY=1;exitDx=0;exitDy=0;shadow=0;strokeColor=#666666;fontFamily=Architects Daughter;fontSource=https%3A%2F%2Ffonts.googleapis.com%2Fcss%3Ffamily%3DArchitects%2BDaughter;fontSize=14;" parent="1" source="25" target="119" edge="1">
                    <mxGeometry relative="1" as="geometry"/>
                </mxCell>
                <mxCell id="132" style="edgeStyle=orthogonalEdgeStyle;rounded=0;hachureGap=4;html=1;exitX=0.5;exitY=1;exitDx=0;exitDy=0;shadow=0;strokeColor=#666666;fontFamily=Architects Daughter;fontSource=https%3A%2F%2Ffonts.googleapis.com%2Fcss%3Ffamily%3DArchitects%2BDaughter;fontSize=14;" parent="1" source="25" target="41" edge="1">
                    <mxGeometry relative="1" as="geometry"/>
                </mxCell>
                <mxCell id="25" value="&lt;font style=&quot;&quot;&gt;&lt;div style=&quot;&quot;&gt;&lt;span style=&quot;&quot; id=&quot;docs-internal-guid-1288ad9f-7fff-c304-865a-d60a55c0875b&quot;&gt;&lt;p style=&quot;line-height:1.2;margin-top:0pt;margin-bottom:0pt;&quot; dir=&quot;ltr&quot;&gt;With outcome criteria&lt;/p&gt;&lt;p style=&quot;line-height:1.2;margin-top:0pt;margin-bottom:0pt;&quot; dir=&quot;ltr&quot;&gt;- At least one occurrence of any of the following during follow up period&lt;/p&gt;&lt;p style=&quot;line-height:1.2;margin-top:0pt;margin-bottom:0pt;&quot; dir=&quot;ltr&quot;&gt;- ALP &amp;gt;= 2 or ALT &amp;gt;= 5 or (ALT&amp;nbsp; &amp;gt;= 3 and TBL &amp;gt;=2 x ULN)&lt;/p&gt;&lt;/span&gt;&lt;/div&gt;&lt;/font&gt;" style="rounded=1;whiteSpace=wrap;html=1;arcSize=0;fillColor=none;strokeColor=#666666;fontColor=#333333;spacingLeft=12;align=left;shadow=0;fontSize=14;" parent="1" vertex="1">
                    <mxGeometry x="231" y="430" width="515" height="70" as="geometry"/>
                </mxCell>
                <mxCell id="130" style="edgeStyle=orthogonalEdgeStyle;rounded=0;hachureGap=4;html=1;entryX=0.5;entryY=0;entryDx=0;entryDy=0;shadow=0;strokeColor=#666666;fontFamily=Architects Daughter;fontSource=https%3A%2F%2Ffonts.googleapis.com%2Fcss%3Ffamily%3DArchitects%2BDaughter;fontSize=14;exitX=0.5;exitY=1;exitDx=0;exitDy=0;" parent="1" source="41" target="100" edge="1">
                    <mxGeometry relative="1" as="geometry"/>
                </mxCell>
                <mxCell id="108" style="edgeStyle=orthogonalEdgeStyle;hachureGap=4;html=1;exitX=0.5;exitY=1;exitDx=0;exitDy=0;strokeColor=#666666;fontFamily=Architects Daughter;fontSource=https%3A%2F%2Ffonts.googleapis.com%2Fcss%3Ffamily%3DArchitects%2BDaughter;fontSize=14;shadow=0;rounded=0;" parent="1" source="40" target="81" edge="1">
                    <mxGeometry relative="1" as="geometry"/>
                </mxCell>
                <mxCell id="40" value="&lt;font style=&quot;border-color: var(--border-color);&quot;&gt;&lt;font style=&quot;border-color: var(--border-color);&quot; face=&quot;Arial&quot;&gt;Case cohort :&amp;nbsp;&lt;br style=&quot;border-color: var(--border-color);&quot;&gt;&lt;br style=&quot;border-color: var(--border-color);&quot;&gt;&lt;/font&gt;&lt;span style=&quot;border-color: var(--border-color); font-family: Arial;&quot;&gt;Total 2,713 Patients&lt;/span&gt;&lt;font style=&quot;border-color: var(--border-color);&quot; face=&quot;Arial&quot;&gt;&lt;br style=&quot;border-color: var(--border-color);&quot;&gt;- SH&amp;nbsp; =&amp;nbsp;&lt;/font&gt;&lt;span style=&quot;border-color: var(--border-color); font-family: Arial;&quot;&gt;1,189&lt;br style=&quot;border-color: var(--border-color);&quot;&gt;&lt;/span&gt;&lt;/font&gt;&lt;font style=&quot;border-color: var(--border-color);&quot; face=&quot;Arial&quot;&gt;- GSH = 286&lt;br style=&quot;border-color: var(--border-color);&quot;&gt;- KYUH = 269&lt;br style=&quot;border-color: var(--border-color);&quot;&gt;- AJUH = 537&lt;br style=&quot;border-color: var(--border-color);&quot;&gt;- SNUH = 432&lt;/font&gt;&lt;font face=&quot;Arial&quot; style=&quot;font-size: 14px;&quot;&gt;&lt;br style=&quot;font-size: 14px;&quot;&gt;&lt;/font&gt;" style="rounded=1;whiteSpace=wrap;html=1;arcSize=0;fillColor=none;strokeColor=#666666;fontColor=#333333;spacingLeft=12;align=left;shadow=0;fontSize=14;" parent="1" vertex="1">
                    <mxGeometry x="231" y="800" width="190" height="163" as="geometry"/>
                </mxCell>
                <mxCell id="93" style="edgeStyle=orthogonalEdgeStyle;hachureGap=4;html=1;strokeColor=#666666;fontFamily=Architects Daughter;fontSource=https%3A%2F%2Ffonts.googleapis.com%2Fcss%3Ffamily%3DArchitects%2BDaughter;fontSize=14;fontColor=#333333;shadow=0;rounded=0;" parent="1" source="81" target="82" edge="1">
                    <mxGeometry relative="1" as="geometry"/>
                </mxCell>
                <mxCell id="41" value="&lt;font style=&quot;border-color: var(--border-color); font-size: 14px;&quot; face=&quot;Arial&quot;&gt;&lt;span style=&quot;border-color: var(--border-color); background-color: initial; font-size: 14px;&quot;&gt;Control c&lt;/span&gt;&lt;font style=&quot;border-color: var(--border-color); background-color: initial; font-size: 14px;&quot; face=&quot;Arial&quot;&gt;ohort :&lt;br style=&quot;font-size: 14px;&quot;&gt;&lt;/font&gt;&lt;br style=&quot;font-size: 14px;&quot;&gt;Total 259,782 Patients&lt;br style=&quot;font-size: 14px;&quot;&gt;- SH&amp;nbsp; =&amp;nbsp;&lt;/font&gt;&lt;span style=&quot;border-color: var(--border-color); font-family: Arial; font-size: 14px;&quot;&gt;81,602&lt;br style=&quot;border-color: var(--border-color); font-size: 14px;&quot;&gt;&lt;/span&gt;&lt;font style=&quot;border-color: var(--border-color); font-size: 14px;&quot; face=&quot;Arial&quot;&gt;-&amp;nbsp;GSH = 23,829&lt;br style=&quot;border-color: var(--border-color); font-size: 14px;&quot;&gt;-&amp;nbsp;KYUH = 24,439&lt;br style=&quot;border-color: var(--border-color); font-size: 14px;&quot;&gt;-&amp;nbsp;AJUH = 40,708&lt;br style=&quot;border-color: var(--border-color); font-size: 14px;&quot;&gt;-&amp;nbsp;SNUH = 88,204&lt;/font&gt;&lt;font face=&quot;Arial&quot; style=&quot;font-size: 14px;&quot;&gt;&lt;br style=&quot;font-size: 14px;&quot;&gt;&lt;/font&gt;" style="rounded=1;whiteSpace=wrap;html=1;arcSize=0;fillColor=none;strokeColor=#666666;fontColor=#333333;align=left;spacingLeft=12;shadow=0;fontSize=14;" parent="1" vertex="1">
                    <mxGeometry x="551" y="530" width="190" height="163" as="geometry"/>
                </mxCell>
                <mxCell id="82" value="&lt;font face=&quot;Arial&quot; style=&quot;font-size: 14px;&quot;&gt;&lt;div style=&quot;font-size: 14px;&quot;&gt;- Extraction of common important variables for each institution.&lt;/div&gt;&lt;div style=&quot;font-size: 14px;&quot;&gt;- Analyze temporal attention map across institutions.&lt;/div&gt;- Statistical tests for real data distribution.&lt;br style=&quot;font-size: 14px;&quot;&gt;&lt;/font&gt;" style="rounded=1;whiteSpace=wrap;html=1;arcSize=0;fillColor=none;strokeColor=#666666;fontColor=#333333;spacingLeft=12;align=left;shadow=0;fontSize=14;" parent="1" vertex="1">
                    <mxGeometry x="231" y="1096" width="510" height="70" as="geometry"/>
                </mxCell>
                <mxCell id="100" value="&lt;div style=&quot;&quot;&gt;&lt;span style=&quot;font-size: 14px; background-color: initial; font-family: Arial;&quot;&gt;Control c&lt;/span&gt;&lt;font style=&quot;background-color: initial;&quot; face=&quot;Arial&quot;&gt;ohort :&amp;nbsp;&lt;br style=&quot;font-size: 14px;&quot;&gt;&lt;br style=&quot;font-size: 14px;&quot;&gt;Total 8,139 patients&lt;/font&gt;&lt;/div&gt;&lt;span style=&quot;font-family: Arial; font-size: 14px;&quot;&gt;&lt;div style=&quot;font-size: 14px;&quot;&gt;&lt;span style=&quot;background-color: initial; font-size: 14px;&quot;&gt;-&amp;nbsp;&lt;/span&gt;&lt;font style=&quot;background-color: initial; font-size: 14px;&quot; face=&quot;Arial&quot;&gt;SH&amp;nbsp; =&amp;nbsp;&lt;/font&gt;&lt;span style=&quot;background-color: initial; font-size: 14px;&quot;&gt;3,567&lt;/span&gt;&lt;/div&gt;&lt;/span&gt;&lt;span style=&quot;font-family: Arial; font-size: 14px;&quot;&gt;&lt;div style=&quot;font-size: 14px;&quot;&gt;&lt;span style=&quot;background-color: initial; font-size: 14px;&quot;&gt;-&amp;nbsp;&lt;/span&gt;&lt;font style=&quot;background-color: initial; font-size: 14px;&quot; face=&quot;Arial&quot;&gt;GSH = 858&lt;/font&gt;&lt;/div&gt;&lt;/span&gt;&lt;span style=&quot;font-family: Arial; font-size: 14px;&quot;&gt;&lt;div style=&quot;font-size: 14px;&quot;&gt;&lt;span style=&quot;background-color: initial; font-size: 14px;&quot;&gt;-&amp;nbsp;&lt;/span&gt;&lt;font style=&quot;background-color: initial; font-size: 14px;&quot; face=&quot;Arial&quot;&gt;KYUH = 807&lt;/font&gt;&lt;/div&gt;&lt;/span&gt;&lt;span style=&quot;font-family: Arial; font-size: 14px;&quot;&gt;&lt;div style=&quot;font-size: 14px;&quot;&gt;&lt;span style=&quot;background-color: initial; font-size: 14px;&quot;&gt;-&amp;nbsp;&lt;/span&gt;&lt;font style=&quot;background-color: initial; font-size: 14px;&quot; face=&quot;Arial&quot;&gt;AJUH = 1,611&lt;/font&gt;&lt;/div&gt;&lt;/span&gt;&lt;span style=&quot;font-family: Arial; font-size: 14px;&quot;&gt;&lt;div style=&quot;font-size: 14px;&quot;&gt;&lt;span style=&quot;background-color: initial; font-size: 14px;&quot;&gt;-&amp;nbsp;&lt;/span&gt;&lt;font style=&quot;background-color: initial; font-size: 14px;&quot; face=&quot;Arial&quot;&gt;SNUH = 1,296&lt;/font&gt;&lt;/div&gt;&lt;/span&gt;" style="rounded=1;whiteSpace=wrap;html=1;arcSize=0;fillColor=none;strokeColor=#666666;fontColor=#333333;spacingLeft=12;align=left;shadow=0;fontSize=14;" parent="1" vertex="1">
                    <mxGeometry x="551" y="800" width="190" height="163" as="geometry"/>
                </mxCell>
                <mxCell id="107" style="edgeStyle=orthogonalEdgeStyle;hachureGap=4;html=1;exitX=0.5;exitY=1;exitDx=0;exitDy=0;strokeColor=#666666;fontFamily=Architects Daughter;fontSource=https%3A%2F%2Ffonts.googleapis.com%2Fcss%3Ffamily%3DArchitects%2BDaughter;fontSize=14;shadow=0;rounded=0;" parent="1" source="100" target="81" edge="1">
                    <mxGeometry relative="1" as="geometry"/>
                </mxCell>
                <mxCell id="113" style="edgeStyle=none;hachureGap=4;html=1;exitX=0;exitY=0.5;exitDx=0;exitDy=0;entryX=1;entryY=0.5;entryDx=0;entryDy=0;fontFamily=Architects Daughter;fontSource=https%3A%2F%2Ffonts.googleapis.com%2Fcss%3Ffamily%3DArchitects%2BDaughter;fontSize=14;strokeColor=#666666;shadow=0;" parent="1" source="112" target="32" edge="1">
                    <mxGeometry relative="1" as="geometry"/>
                </mxCell>
                <mxCell id="112" value="&lt;font face=&quot;Arial&quot; style=&quot;font-size: 14px;&quot;&gt;Matching covariates&lt;br&gt;- Age&lt;br style=&quot;font-size: 14px;&quot;&gt;- Sex&lt;br style=&quot;font-size: 14px;&quot;&gt;- LFT Values&lt;/font&gt;&lt;span style=&quot;font-family: Arial;&quot;&gt;&amp;nbsp;&lt;br&gt;&lt;/span&gt;&lt;font face=&quot;Arial&quot; style=&quot;font-size: 14px;&quot;&gt;&amp;nbsp; (at&amp;nbsp;&lt;/font&gt;&lt;span style=&quot;font-family: Arial; font-size: 14px;&quot;&gt;Baseline)&lt;/span&gt;&lt;font face=&quot;Arial&quot; style=&quot;font-size: 14px;&quot;&gt;&lt;br style=&quot;font-size: 14px;&quot;&gt;&lt;/font&gt;" style="rounded=1;whiteSpace=wrap;html=1;arcSize=0;fillColor=none;strokeColor=#666666;fontColor=#333333;spacingLeft=12;align=left;shadow=0;fontSize=14;" parent="1" vertex="1">
                    <mxGeometry x="772" y="703.13" width="148" height="87.75" as="geometry"/>
                </mxCell>
                <mxCell id="125" style="edgeStyle=orthogonalEdgeStyle;rounded=0;hachureGap=4;html=1;exitX=0.5;exitY=1;exitDx=0;exitDy=0;entryX=0.5;entryY=0;entryDx=0;entryDy=0;shadow=0;strokeColor=#666666;fontFamily=Architects Daughter;fontSource=https%3A%2F%2Ffonts.googleapis.com%2Fcss%3Ffamily%3DArchitects%2BDaughter;fontSize=14;" parent="1" source="119" target="40" edge="1">
                    <mxGeometry relative="1" as="geometry"/>
                </mxCell>
                <mxCell id="119" value="&lt;font style=&quot;border-color: var(--border-color);&quot;&gt;&lt;font style=&quot;border-color: var(--border-color);&quot; face=&quot;Arial&quot;&gt;Case cohort :&amp;nbsp;&lt;br style=&quot;border-color: var(--border-color);&quot;&gt;&lt;br style=&quot;border-color: var(--border-color);&quot;&gt;&lt;/font&gt;&lt;span style=&quot;border-color: var(--border-color); font-family: Arial;&quot;&gt;Total 2,713 Patients&lt;/span&gt;&lt;font style=&quot;border-color: var(--border-color);&quot; face=&quot;Arial&quot;&gt;&lt;br style=&quot;border-color: var(--border-color);&quot;&gt;- SH&amp;nbsp; =&amp;nbsp;&lt;/font&gt;&lt;span style=&quot;border-color: var(--border-color); font-family: Arial;&quot;&gt;1,189&lt;br style=&quot;border-color: var(--border-color);&quot;&gt;&lt;/span&gt;&lt;/font&gt;&lt;font style=&quot;border-color: var(--border-color);&quot; face=&quot;Arial&quot;&gt;- GSH = 286&lt;br style=&quot;border-color: var(--border-color);&quot;&gt;- KYUH = 269&lt;br style=&quot;border-color: var(--border-color);&quot;&gt;- AJUH = 537&lt;br style=&quot;border-color: var(--border-color);&quot;&gt;- SNUH = 432&lt;/font&gt;&lt;font face=&quot;Arial&quot; style=&quot;font-size: 14px;&quot;&gt;&lt;br style=&quot;font-size: 14px;&quot;&gt;&lt;/font&gt;" style="rounded=1;whiteSpace=wrap;html=1;arcSize=0;fillColor=none;strokeColor=#666666;fontColor=#333333;spacingLeft=12;align=left;shadow=0;fontSize=14;" parent="1" vertex="1">
                    <mxGeometry x="231" y="530" width="190" height="163" as="geometry"/>
                </mxCell>
                <mxCell id="32" value="&lt;font face=&quot;Arial&quot; style=&quot;font-size: 14px;&quot;&gt;&lt;div style=&quot;font-size: 14px;&quot;&gt;- Patients matched with propensity scores in a 1:3 ratio.&lt;/div&gt;&lt;/font&gt;" style="rounded=1;whiteSpace=wrap;html=1;arcSize=0;fillColor=default;strokeColor=#666666;fontColor=#333333;spacingLeft=12;align=left;shadow=0;fontSize=14;" parent="1" vertex="1">
                    <mxGeometry x="231" y="717" width="510" height="60" as="geometry"/>
                </mxCell>
                <mxCell id="142" value="&lt;font style=&quot;font-size: 14px;&quot;&gt;&lt;span style=&quot;border-color: var(--border-color);&quot;&gt;With exclusion criteria&lt;/span&gt;&lt;font style=&quot;border-color: var(--border-color); font-size: 14px;&quot;&gt;&lt;br style=&quot;border-color: var(--border-color);&quot;&gt;&lt;/font&gt;&lt;span style=&quot;border-color: var(--border-color);&quot;&gt;-&amp;nbsp;&lt;/span&gt;&lt;font style=&quot;border-color: var(--border-color); font-size: 14px;&quot;&gt;&lt;span style=&quot;font-family: Arial;&quot;&gt;Patients who had &lt;/span&gt;No everts&amp;nbsp;&lt;/font&gt;&lt;font style=&quot;border-color: var(--border-color); font-size: 14px;&quot;&gt;&lt;span style=&quot;font-family: Arial;&quot;&gt;LFT value&lt;/span&gt;&lt;span style=&quot;background-color: initial;&quot;&gt;&amp;nbsp;&amp;gt;= ULN. between 60 days before and 0 days after cohort entry start date.&lt;/span&gt;&lt;span style=&quot;font-family: Arial;&quot;&gt;&lt;br&gt;&lt;/span&gt;&lt;/font&gt;&lt;/font&gt;" style="rounded=1;whiteSpace=wrap;html=1;arcSize=0;fillColor=none;strokeColor=#666666;fontColor=#333333;align=left;spacingLeft=12;shadow=0;fontSize=14;" parent="1" vertex="1">
                    <mxGeometry x="518" y="320" width="430" height="90" as="geometry"/>
                </mxCell>
                <mxCell id="151" value="" style="endArrow=classic;html=1;rounded=0;hachureGap=4;fontFamily=Architects Daughter;fontSource=https%3A%2F%2Ffonts.googleapis.com%2Fcss%3Ffamily%3DArchitects%2BDaughter;fontSize=16;shadow=0;" parent="1" edge="1">
                    <mxGeometry width="50" height="50" relative="1" as="geometry">
                        <mxPoint x="488" y="360" as="sourcePoint"/>
                        <mxPoint x="518" y="360" as="targetPoint"/>
                    </mxGeometry>
                </mxCell>
                <mxCell id="153" value="&lt;font face=&quot;Arial&quot; style=&quot;font-size: 14px;&quot;&gt;Targeted drugs&lt;br&gt;- Losartan&lt;br&gt;- Candesartan&lt;br&gt;- Telmisartan&lt;br&gt;- Olmesartan&lt;br&gt;- Irbesartan&lt;br&gt;- Valsartan&lt;br style=&quot;font-size: 14px;&quot;&gt;&lt;/font&gt;" style="rounded=1;whiteSpace=wrap;html=1;arcSize=0;fillColor=none;strokeColor=#666666;fontColor=#333333;spacingLeft=12;align=left;shadow=0;fontSize=14;" parent="1" vertex="1">
                    <mxGeometry x="773" y="170" width="137" height="129" as="geometry"/>
                </mxCell>
                <mxCell id="154" style="edgeStyle=none;hachureGap=4;html=1;exitX=0;exitY=0.5;exitDx=0;exitDy=0;entryX=1;entryY=0.5;entryDx=0;entryDy=0;fontFamily=Architects Daughter;fontSource=https%3A%2F%2Ffonts.googleapis.com%2Fcss%3Ffamily%3DArchitects%2BDaughter;fontSize=14;strokeColor=#666666;shadow=0;" parent="1" source="153" target="14" edge="1">
                    <mxGeometry relative="1" as="geometry">
                        <mxPoint x="782" y="757" as="sourcePoint"/>
                        <mxPoint x="752" y="757" as="targetPoint"/>
                    </mxGeometry>
                </mxCell>
            </root>
        </mxGraphModel>
    </diagram>
</mxfile>